Coordinates
version=1
nRows=21
nColumns=22
inDegrees=yes

Units are S.I. units (second, meters, Newtons, ...)
If the header above contains a line with 'inDegrees', this indicates whether rotational values are in degrees (yes) or radians (no).

endheader
time	pelvis_tilt	pelvis_list	pelvis_rotation	pelvis_tx	pelvis_ty	pelvis_tz	hip_flexion_r	hip_adduction_r	hip_rotation_r	knee_angle_r	ankle_angle_r	subtalar_angle_r	hip_flexion_l	hip_adduction_l	hip_rotation_l	knee_angle_l	ankle_angle_l	subtalar_angle_l	lumbar_extension	lumbar_bending	lumbar_rotation
      0.01000000	      0.89981515	     -0.67165791	    -30.99343222	     -1.03992504	      0.90411699	     -0.44237993	     -4.34956789	      0.50227579	     -7.07973386	     -9.98267307	     19.74222791	     -6.83430816	     -0.58137002	     -1.97210580	    -11.90225015	    -17.00265666	     19.62734423	     -3.98101041	     -6.68828404	     -2.87961301	      4.85003955
      0.02000000	      0.89691722	     -0.67407527	    -30.99437315	     -1.03985350	      0.90411807	     -0.44243852	     -4.35058770	      0.50121198	     -7.07972120	     -9.98236580	     19.74202121	     -6.83460385	     -0.58156711	     -1.97041870	    -11.90261606	    -17.00328431	     19.62740956	     -3.98071150	     -6.68892467	     -2.88016286	      4.85009037
      0.03000000	      0.89467730	     -0.67626902	    -31.00205199	     -1.03974645	      0.90411772	     -0.44253582	     -4.35424216	      0.49370848	     -7.08024201	     -9.97749619	     19.74005349	     -6.83680639	     -0.58214466	     -1.96218816	    -11.90469813	    -17.00804700	     19.62834822	     -3.97884615	     -6.69035085	     -2.87115414	      4.85319780
      0.04000000	      0.89972280	     -0.67838875	    -31.02058587	     -1.03964300	      0.90412751	     -0.44259242	     -4.37525341	      0.48462819	     -7.06625152	     -9.95199926	     19.72131772	     -6.85694337	     -0.58989058	     -1.95551677	    -11.93467894	    -17.01828299	     19.64005393	     -3.96508867	     -6.69709455	     -2.88059375	      4.89673489
      0.05000000	      0.89509661	     -0.68168271	    -31.02389118	     -1.03951536	      0.90412608	     -0.44270851	     -4.37577669	      0.47910437	     -7.06343686	     -9.95206487	     19.72096245	     -6.85856885	     -0.59163178	     -1.94881164	    -11.93794994	    -17.01804177	     19.64032944	     -3.96419870	     -6.69885249	     -2.87099574	      4.89744904
      0.06000000	      0.88999428	     -0.68473736	    -31.02972647	     -1.03938366	      0.90412282	     -0.44282159	     -4.37627683	      0.47271272	     -7.06028642	     -9.95125843	     19.72022494	     -6.86060830	     -0.59349630	     -1.94272734	    -11.94244936	    -17.01808165	     19.64127733	     -3.96335534	     -6.69988409	     -2.86242102	      4.90143450
      0.07000000	      0.88207348	     -0.68668243	    -31.07453035	     -1.03926241	      0.90411540	     -0.44286194	     -4.37211474	      0.46604496	     -7.00532702	     -9.94907248	     19.71082377	     -6.88782004	     -0.61062395	     -1.93954825	    -12.01422238	    -16.99778043	     19.65918964	     -3.95559256	     -6.69032880	     -2.86190027	      4.97582452
      0.08000000	      0.87707447	     -0.68874742	    -31.07563192	     -1.03912599	      0.90410817	     -0.44298832	     -4.37234048	      0.45884845	     -7.00224028	     -9.94894064	     19.71130984	     -6.88914946	     -0.61045547	     -1.93263720	    -12.01713535	    -16.99989692	     19.65896524	     -3.95520541	     -6.69331234	     -2.85327930	      4.97603153
      0.09000000	      0.87135233	     -0.69012839	    -31.07547246	     -1.03898434	      0.90409677	     -0.44311434	     -4.37206177	      0.45122390	     -6.99929230	     -9.94825549	     19.71187743	     -6.89057202	     -0.61079196	     -1.92588741	    -12.02188618	    -17.00055794	     19.65943023	     -3.95489569	     -6.69480860	     -2.84531238	      4.97801998
      0.10000000	      0.86521435	     -0.69068717	    -31.07419403	     -1.03884086	      0.90408253	     -0.44324164	     -4.37129974	      0.44302052	     -6.99674412	     -9.94703142	     19.71262742	     -6.89201598	     -0.61110119	     -1.91899428	    -12.02810883	    -16.99958831	     19.66050572	     -3.95462641	     -6.69537668	     -2.83739079	      4.98072160
      0.11000000	      0.85854664	     -0.69011487	    -31.07260444	     -1.03869554	      0.90406564	     -0.44336856	     -4.37032020	      0.43465752	     -6.99443900	     -9.94539461	     19.71390034	     -6.89383203	     -0.61097805	     -1.91103914	    -12.03674981	    -16.99651566	     19.66246788	     -3.95430558	     -6.69441191	     -2.82993963	      4.98352644
      0.12000000	      0.84379832	     -0.67292205	    -31.08801228	     -1.03852968	      0.90402333	     -0.44344188	     -4.35719564	      0.41500746	     -6.98548479	     -9.93577843	     19.72694642	     -6.90874367	     -0.61131263	     -1.89371354	    -12.08925202	    -16.97169348	     19.67936791	     -3.95180388	     -6.66483127	     -2.83892268	      4.99071546
      0.13000000	      0.83813002	     -0.67360782	    -31.08208937	     -1.03838921	      0.90400518	     -0.44357436	     -4.35626322	      0.40778292	     -6.98293142	     -9.93667441	     19.72796509	     -6.91004005	     -0.61071443	     -1.88712172	    -12.09261398	    -16.97149504	     19.67998107	     -3.95148635	     -6.66707546	     -2.83248614	      4.99360219
      0.14000000	      0.83176125	     -0.67313132	    -31.07692071	     -1.03824342	      0.90398510	     -0.44370485	     -4.35521755	      0.40003773	     -6.98182136	     -9.93618065	     19.72965481	     -6.91161361	     -0.61019556	     -1.87898033	    -12.09718737	    -16.96930233	     19.68140858	     -3.95107011	     -6.66754331	     -2.82598092	      4.99451776
      0.15000000	      0.82484785	     -0.67131484	    -31.07121380	     -1.03808984	      0.90396402	     -0.44383487	     -4.35411377	      0.39112994	     -6.98209037	     -9.93422933	     19.73217681	     -6.91355194	     -0.60998424	     -1.86947931	    -12.10288380	    -16.96481755	     19.68376863	     -3.95053699	     -6.66567697	     -2.81958099	      4.99351950
      0.16000000	      0.81096121	     -0.64957080	    -31.06889544	     -1.03789811	      0.90391888	     -0.44392842	     -4.34625514	      0.36779813	     -6.99716809	     -9.91759116	     19.75134666	     -6.92698002	     -0.60889277	     -1.84396339	    -12.12159895	    -16.93322352	     19.70009310	     -3.94723600	     -6.63372621	     -2.83111307	      4.97164921
      0.17000000	      0.80503131	     -0.64936854	    -31.06137189	     -1.03774155	      0.90390192	     -0.44405491	     -4.34622525	      0.36070304	     -6.99691526	     -9.91778190	     19.75300533	     -6.92845734	     -0.60884051	     -1.83515209	    -12.12289839	    -16.93225064	     19.70090017	     -3.94692278	     -6.63436288	     -2.82481315	      4.97320720
      0.18000000	      0.79369321	     -0.62856433	    -31.05308373	     -1.03754248	      0.90386217	     -0.44416741	     -4.34126306	      0.33592638	     -7.01801250	     -9.90177038	     19.77442951	     -6.94506818	     -0.60809900	     -1.80580471	    -12.11488997	    -16.90352837	     19.71237567	     -3.94468247	     -6.60871449	     -2.83415263	      4.95941852
      0.19000000	      0.78777838	     -0.62855450	    -31.04509143	     -1.03737806	      0.90384706	     -0.44429200	     -4.34229112	      0.32859322	     -7.01767822	     -9.90258512	     19.77564468	     -6.94660910	     -0.60825414	     -1.79714756	    -12.11521854	    -16.90211733	     19.71251179	     -3.94470295	     -6.61002329	     -2.82623276	      4.96124331
      0.20000000	      0.78087700	     -0.62767334	    -31.03907250	     -1.03720491	      0.90383251	     -0.44441183	     -4.34327701	      0.32046034	     -7.01901528	     -9.90061621	     19.77744141	     -6.94839626	     -0.60941560	     -1.78720338	    -12.11556865	    -16.89808302	     19.71328319	     -3.94479280	     -6.60973376	     -2.81743824	      4.96276665
      0.21000000	      0.76881538	     -0.61453009	    -31.03619644	     -1.03698959	      0.90380533	     -0.44450135	     -4.34608318	      0.30358223	     -7.03850529	     -9.87804511	     19.79156114	     -6.96184086	     -0.62116471	     -1.76356709	    -12.10355944	    -16.85779218	     19.72039107	     -3.94694248	     -6.58679728	     -2.81965120	      4.96596839
